<?xml version="1.0" encoding="UTF-8"?>
<!DOCTYPE svg PUBLIC "-//W3C//DTD SVG 1.1//EN" "http://www.w3.org/Graphics/SVG/1.1/DTD/svg11.dtd">
<!-- Creator: CorelDRAW X7 -->
<svg xmlns="http://www.w3.org/2000/svg" xml:space="preserve" width="5.7147in" height="5.30582in" version="1.1" style="shape-rendering:geometricPrecision; text-rendering:geometricPrecision; image-rendering:optimizeQuality; fill-rule:evenodd; clip-rule:evenodd"
viewBox="0 0 5209 4836"
 xmlns:xlink="http://www.w3.org/1999/xlink">
 <defs>
  <style type="text/css">
   <![CDATA[
    .fil2 {fill:#A8CF45}
    .fil1 {fill:#0098DA}
    .fil0 {fill:#A8CF45;fill-rule:nonzero}
   ]]>
  </style>
 </defs>
 <g id="Layer_x0020_1">
  <metadata id="CorelCorpID_0Corel-Layer"/>
  <g id="_2674075604192">
   <path class="fil0" d="M1568 4630l152 0 -75 -182 -77 182zm-1524 200l1618 -601 9 0 274 586 -145 0 -37 -85 -235 0 -38 85 -1446 15zm1945 -15l0 -581 139 0 0 456 226 0 0 125 -365 0zm550 -581l0 319c0,51 9,90 28,115 19,26 48,39 86,39 37,0 65,-12 84,-36 20,-24 29,-58 29,-104l0 -333 124 0 0 333c0,84 -21,150 -64,197 -43,46 -103,70 -179,70 -78,0 -138,-23 -181,-70 -43,-46 -64,-112 -64,-196l0 -334 137 0zm431 581l121 -600 10 0 219 378 207 -378 10 0 122 600 -132 0 -49 -265 -156 286 -10 0 -167 -290 -51 269 -124 0zm773 0l0 -581 358 0 0 120 -223 0 0 105 191 0 0 119 -191 0 0 115 226 0 0 122 -361 0zm467 0l0 -581 139 0 0 456 254 0 0 125 -393 0z"/>
   <path class="fil1" d="M929 4010c44,-150 150,-369 213,-517 73,-170 139,-335 209,-500 142,-334 278,-667 419,-999 141,-332 283,-667 418,-1000 132,-321 305,-681 412,-994 -8,32 -131,245 -160,296 -385,682 -755,1421 -1140,2101 -226,401 -428,812 -654,1207l-646 1202 3683 -1355 140 341 161 396 630 -3c-23,-87 -550,-1325 -577,-1355l-3108 1180z"/>
   <path class="fil2" d="M2509 2603c45,-148 144,-346 208,-498 59,-143 140,-364 212,-487l333 794 -753 191zm-905 698c135,-34 324,-122 463,-175l2704 -1043c84,-33 379,-161 438,-175l-1386 352c-48,-70 -115,-242 -154,-326l-372 -967 -308 -835c-158,378 -325,739 -488,1112l-897 2057z"/>
   <polygon class="fil1" points="1617,3342 5209,1959 5205,1949 1613,3332 "/>
   <polygon class="fil2" points="985,3951 4024,2781 4020,2771 981,3941 "/>
   <polygon class="fil1" points="4405,4105 4584,4105 4614,4185 4602,4636 4405,4636 "/>
  </g>
 </g>
</svg>
